<svg width="46" height="46" viewBox="0 0 46 46" fill="none" xmlns="http://www.w3.org/2000/svg">
<g id="layers" clip-path="url(#clip0_134_305)">
<g id="Group">
<g id="Group_2">
<path id="Vector" d="M45.62 23.0839C45.6191 22.6274 45.382 22.204 44.9935 21.9644L40.4202 19.1452L44.9983 16.2957C45.3844 16.0554 45.6193 15.6331 45.62 15.1785C45.6207 14.7237 45.387 14.3007 45.0016 14.0593L23.8201 0.787851C23.392 0.51961 22.8482 0.51961 22.4201 0.787851L1.23851 14.0593C0.853203 14.3007 0.619503 14.7237 0.620118 15.1785C0.620822 15.6332 0.855752 16.0555 1.24185 16.2957L5.78859 19.1256L1.23983 21.9688C0.853994 22.21 0.619767 22.633 0.620206 23.088C0.620646 23.543 0.855664 23.9656 1.24194 24.206L5.78868 27.0359L1.23983 29.8789C0.85461 30.1197 0.62047 30.5419 0.620206 30.9962C0.619943 31.4505 0.853643 31.8729 1.2386 32.1141L22.4202 45.3855C22.6343 45.5196 22.8772 45.5867 23.1201 45.5867C23.363 45.5867 23.6061 45.5196 23.8201 45.3855L45.0016 32.1141C45.3878 31.8721 45.6217 31.4478 45.62 30.992C45.6184 30.5363 45.3814 30.1138 44.9935 29.8746L40.4202 27.0554L44.9983 24.206C45.3858 23.9648 45.621 23.5403 45.62 23.0839ZM4.42753 15.1729L23.1201 3.46095L41.8127 15.1729C41.6331 15.2847 23.6558 26.4739 23.1201 26.8073L4.42753 15.1729ZM41.8041 31.006L23.1201 42.7126L4.42383 30.9983L8.28125 28.5874L22.4235 37.3896C22.6367 37.5223 22.8784 37.5887 23.1201 37.5887C23.3618 37.5887 23.6035 37.5223 23.8167 37.3896L37.92 28.6116L41.8041 31.006ZM23.1201 34.7175L4.42972 23.0845L8.28125 20.6772L22.4235 29.4795C22.6367 29.6122 22.8784 29.6785 23.1201 29.6785C23.3618 29.6785 23.6035 29.6122 23.8167 29.4795L37.92 20.7015L41.7981 23.0921C41.691 23.1588 23.6149 34.4094 23.1201 34.7175Z" fill="#60E1CB"/>
</g>
</g>
</g>
<defs>
<clipPath id="clip0_134_305">
<rect width="45" height="45" fill="white" transform="translate(0.620117 0.58667)"/>
</clipPath>
</defs>
</svg>
