<svg width="45" height="46" viewBox="0 0 45 46" fill="none" xmlns="http://www.w3.org/2000/svg">
<g clip-path="url(#clip0_134_244)">
<mask id="path-1-inside-1_134_244" fill="white">
<path d="M30.8592 28.6442C32.0159 26.9911 32.6953 24.981 32.6953 22.8149C32.6953 17.1934 28.1216 12.6196 22.5 12.6196C16.8784 12.6196 12.3047 17.1934 12.3047 22.8149C12.3047 28.4369 16.8784 33.0103 22.5 33.0103C24.6887 33.0103 26.7184 32.3167 28.3815 31.1385L35.034 37.791C35.377 38.134 35.8271 38.3057 36.2769 38.3057C36.7266 38.3057 37.1767 38.134 37.5197 37.791C38.2063 37.1044 38.2063 35.9913 37.5197 35.305L30.8592 28.6442ZM15.8203 22.8149C15.8203 19.1318 18.8168 16.1353 22.5 16.1353C26.1832 16.1353 29.1797 19.1318 29.1797 22.8149C29.1797 26.4981 26.1832 29.4946 22.5 29.4946C18.8168 29.4946 15.8203 26.4981 15.8203 22.8149ZM45 21.8481V23.606C45 26.5139 42.6345 28.8794 39.7266 28.8794H38.8411C38.6983 28.8794 38.5895 28.9333 38.5236 28.9786C37.7229 29.5279 36.6288 29.324 36.0798 28.523C35.5305 27.7227 35.7344 26.6282 36.535 26.0793C37.2179 25.6113 38.0151 25.3638 38.8411 25.3638H39.7266C40.6958 25.3638 41.4844 24.5752 41.4844 23.606V21.8481C41.4844 20.8789 40.6958 20.0903 39.7266 20.0903H38.8411C37.1795 20.0903 35.6932 19.0902 35.0539 17.5429L35.0433 17.5171C34.4009 15.9701 34.7446 14.2113 35.9195 13.0364L36.5457 12.4105C37.2309 11.7249 37.2309 10.6098 36.5457 9.92455L35.3025 8.68172C34.9705 8.34972 34.529 8.16673 34.0597 8.16673C33.59 8.16673 33.1485 8.34938 32.8168 8.68172L32.1906 9.30759C31.0158 10.4824 29.2569 10.8265 27.7099 10.1834L27.6838 10.1728C26.1368 9.53384 25.1367 8.0476 25.1367 6.38592V5.50049C25.1367 4.53129 24.3481 3.74268 23.3789 3.74268H21.6211C20.6519 3.74268 19.8633 4.53129 19.8633 5.50049V6.38592C19.8633 8.0476 18.8632 9.53384 17.3158 10.1728L17.2935 10.182C15.7427 10.8261 13.9842 10.4824 12.8094 9.30759L12.1832 8.68137C11.8515 8.34938 11.41 8.16673 10.9403 8.16673C10.471 8.16673 10.0295 8.34938 9.69749 8.68137L8.45432 9.92455C7.76905 10.6098 7.76905 11.7249 8.45432 12.4105L9.08054 13.0364C10.2554 14.2113 10.5991 15.9701 9.95636 17.5175L9.94572 17.5436C9.30679 19.0902 7.82055 20.0903 6.15887 20.0903H5.27344C4.30424 20.0903 3.51562 20.8789 3.51562 21.8481V23.606C3.51562 24.5752 4.30424 25.3638 5.27344 25.3638H6.15887C7.82021 25.3638 9.30679 26.3639 9.94572 27.9112L9.95876 27.9421C10.5991 29.484 10.2554 31.2428 9.08054 32.4177L8.45432 33.0436C8.12233 33.3755 7.93968 33.8171 7.93968 34.2867C7.93968 34.7561 8.12233 35.1976 8.45432 35.5296L9.69749 36.7727C10.3828 37.458 11.4979 37.4583 12.1835 36.7727L12.8094 36.1465C13.9835 34.9727 15.741 34.6283 17.2877 35.2697L17.3103 35.2789C18.8635 35.9203 19.8633 37.4068 19.8633 39.0682V39.9536C19.8633 40.9228 20.6519 41.7114 21.6211 41.7114H23.3789C24.3481 41.7114 25.1367 40.9228 25.1367 39.9536V39.0682C25.1367 38.2421 25.3843 37.4446 25.8525 36.7621C26.4015 35.9615 27.4957 35.7575 28.2963 36.3068C29.0969 36.8558 29.3009 37.95 28.7516 38.7506C28.7062 38.8165 28.6523 38.9254 28.6523 39.0682V39.9536C28.6523 42.8616 26.2868 45.2271 23.3789 45.2271H21.6211C18.7132 45.2271 16.3477 42.8616 16.3477 39.9536V39.0682C16.3477 38.8354 16.2011 38.6243 15.9738 38.5305L15.9418 38.5172C15.7135 38.4224 15.4598 38.4677 15.2954 38.6325L14.6692 39.2587C12.6133 41.3145 9.26765 41.3145 7.21149 39.2587L5.96832 38.0156C4.97234 37.0196 4.42406 35.6954 4.42406 34.2867C4.42406 32.8781 4.97234 31.5539 5.96867 30.5579L6.59454 29.9317C6.759 29.7672 6.80431 29.5135 6.7099 29.2855L6.69548 29.2512C6.60278 29.026 6.39164 28.8794 6.15887 28.8794H5.27344C2.36549 28.8794 0 26.5139 0 23.606V21.8481C0 18.9402 2.36549 16.5747 5.27344 16.5747H6.15887C6.39164 16.5747 6.60278 16.4281 6.69651 16.2012L6.70956 16.1692C6.80466 15.9409 6.75934 15.6872 6.59454 15.5224L5.96867 14.8965C3.91251 12.8404 3.91251 9.49471 5.96867 7.43855L7.21149 6.19572C8.20782 5.19974 9.53201 4.65111 10.9403 4.65111C12.349 4.65111 13.6732 5.19974 14.6695 6.19572L15.2954 6.82159C15.4602 6.98639 15.7139 7.03171 15.9418 6.93695L15.9734 6.92356C16.2011 6.82983 16.3477 6.61869 16.3477 6.38592V5.50049C16.3477 2.59254 18.7135 0.227051 21.6211 0.227051H23.3789C26.2868 0.227051 28.6523 2.59254 28.6523 5.50049V6.38592C28.6523 6.61869 28.7989 6.82983 29.0259 6.92356L29.0616 6.93832C29.2865 7.03171 29.5402 6.98639 29.7046 6.82159L30.3308 6.19572C31.3268 5.19939 32.651 4.65111 34.0597 4.65111C35.468 4.65111 36.7925 5.19939 37.7885 6.19572L39.0313 7.43855C41.0875 9.49471 41.0875 12.8404 39.0313 14.8962L38.4055 15.5224C38.2407 15.6869 38.1953 15.9406 38.2901 16.1689L38.3031 16.2005C38.3972 16.4278 38.6084 16.5747 38.8411 16.5747H39.7266C42.6345 16.5747 45 18.9402 45 21.8481Z"/>
</mask>
<path d="M30.8592 28.6442C32.0159 26.9911 32.6953 24.981 32.6953 22.8149C32.6953 17.1934 28.1216 12.6196 22.5 12.6196C16.8784 12.6196 12.3047 17.1934 12.3047 22.8149C12.3047 28.4369 16.8784 33.0103 22.5 33.0103C24.6887 33.0103 26.7184 32.3167 28.3815 31.1385L35.034 37.791C35.377 38.134 35.8271 38.3057 36.2769 38.3057C36.7266 38.3057 37.1767 38.134 37.5197 37.791C38.2063 37.1044 38.2063 35.9913 37.5197 35.305L30.8592 28.6442ZM15.8203 22.8149C15.8203 19.1318 18.8168 16.1353 22.5 16.1353C26.1832 16.1353 29.1797 19.1318 29.1797 22.8149C29.1797 26.4981 26.1832 29.4946 22.5 29.4946C18.8168 29.4946 15.8203 26.4981 15.8203 22.8149ZM45 21.8481V23.606C45 26.5139 42.6345 28.8794 39.7266 28.8794H38.8411C38.6983 28.8794 38.5895 28.9333 38.5236 28.9786C37.7229 29.5279 36.6288 29.324 36.0798 28.523C35.5305 27.7227 35.7344 26.6282 36.535 26.0793C37.2179 25.6113 38.0151 25.3638 38.8411 25.3638H39.7266C40.6958 25.3638 41.4844 24.5752 41.4844 23.606V21.8481C41.4844 20.8789 40.6958 20.0903 39.7266 20.0903H38.8411C37.1795 20.0903 35.6932 19.0902 35.0539 17.5429L35.0433 17.5171C34.4009 15.9701 34.7446 14.2113 35.9195 13.0364L36.5457 12.4105C37.2309 11.7249 37.2309 10.6098 36.5457 9.92455L35.3025 8.68172C34.9705 8.34972 34.529 8.16673 34.0597 8.16673C33.59 8.16673 33.1485 8.34938 32.8168 8.68172L32.1906 9.30759C31.0158 10.4824 29.2569 10.8265 27.7099 10.1834L27.6838 10.1728C26.1368 9.53384 25.1367 8.0476 25.1367 6.38592V5.50049C25.1367 4.53129 24.3481 3.74268 23.3789 3.74268H21.6211C20.6519 3.74268 19.8633 4.53129 19.8633 5.50049V6.38592C19.8633 8.0476 18.8632 9.53384 17.3158 10.1728L17.2935 10.182C15.7427 10.8261 13.9842 10.4824 12.8094 9.30759L12.1832 8.68137C11.8515 8.34938 11.41 8.16673 10.9403 8.16673C10.471 8.16673 10.0295 8.34938 9.69749 8.68137L8.45432 9.92455C7.76905 10.6098 7.76905 11.7249 8.45432 12.4105L9.08054 13.0364C10.2554 14.2113 10.5991 15.9701 9.95636 17.5175L9.94572 17.5436C9.30679 19.0902 7.82055 20.0903 6.15887 20.0903H5.27344C4.30424 20.0903 3.51562 20.8789 3.51562 21.8481V23.606C3.51562 24.5752 4.30424 25.3638 5.27344 25.3638H6.15887C7.82021 25.3638 9.30679 26.3639 9.94572 27.9112L9.95876 27.9421C10.5991 29.484 10.2554 31.2428 9.08054 32.4177L8.45432 33.0436C8.12233 33.3755 7.93968 33.8171 7.93968 34.2867C7.93968 34.7561 8.12233 35.1976 8.45432 35.5296L9.69749 36.7727C10.3828 37.458 11.4979 37.4583 12.1835 36.7727L12.8094 36.1465C13.9835 34.9727 15.741 34.6283 17.2877 35.2697L17.3103 35.2789C18.8635 35.9203 19.8633 37.4068 19.8633 39.0682V39.9536C19.8633 40.9228 20.6519 41.7114 21.6211 41.7114H23.3789C24.3481 41.7114 25.1367 40.9228 25.1367 39.9536V39.0682C25.1367 38.2421 25.3843 37.4446 25.8525 36.7621C26.4015 35.9615 27.4957 35.7575 28.2963 36.3068C29.0969 36.8558 29.3009 37.95 28.7516 38.7506C28.7062 38.8165 28.6523 38.9254 28.6523 39.0682V39.9536C28.6523 42.8616 26.2868 45.2271 23.3789 45.2271H21.6211C18.7132 45.2271 16.3477 42.8616 16.3477 39.9536V39.0682C16.3477 38.8354 16.2011 38.6243 15.9738 38.5305L15.9418 38.5172C15.7135 38.4224 15.4598 38.4677 15.2954 38.6325L14.6692 39.2587C12.6133 41.3145 9.26765 41.3145 7.21149 39.2587L5.96832 38.0156C4.97234 37.0196 4.42406 35.6954 4.42406 34.2867C4.42406 32.8781 4.97234 31.5539 5.96867 30.5579L6.59454 29.9317C6.759 29.7672 6.80431 29.5135 6.7099 29.2855L6.69548 29.2512C6.60278 29.026 6.39164 28.8794 6.15887 28.8794H5.27344C2.36549 28.8794 0 26.5139 0 23.606V21.8481C0 18.9402 2.36549 16.5747 5.27344 16.5747H6.15887C6.39164 16.5747 6.60278 16.4281 6.69651 16.2012L6.70956 16.1692C6.80466 15.9409 6.75934 15.6872 6.59454 15.5224L5.96867 14.8965C3.91251 12.8404 3.91251 9.49471 5.96867 7.43855L7.21149 6.19572C8.20782 5.19974 9.53201 4.65111 10.9403 4.65111C12.349 4.65111 13.6732 5.19974 14.6695 6.19572L15.2954 6.82159C15.4602 6.98639 15.7139 7.03171 15.9418 6.93695L15.9734 6.92356C16.2011 6.82983 16.3477 6.61869 16.3477 6.38592V5.50049C16.3477 2.59254 18.7135 0.227051 21.6211 0.227051H23.3789C26.2868 0.227051 28.6523 2.59254 28.6523 5.50049V6.38592C28.6523 6.61869 28.7989 6.82983 29.0259 6.92356L29.0616 6.93832C29.2865 7.03171 29.5402 6.98639 29.7046 6.82159L30.3308 6.19572C31.3268 5.19939 32.651 4.65111 34.0597 4.65111C35.468 4.65111 36.7925 5.19939 37.7885 6.19572L39.0313 7.43855C41.0875 9.49471 41.0875 12.8404 39.0313 14.8962L38.4055 15.5224C38.2407 15.6869 38.1953 15.9406 38.2901 16.1689L38.3031 16.2005C38.3972 16.4278 38.6084 16.5747 38.8411 16.5747H39.7266C42.6345 16.5747 45 18.9402 45 21.8481Z" fill="#60E1CB" stroke="#FCFCFE" stroke-width="1.2" mask="url(#path-1-inside-1_134_244)"/>
</g>
<defs>
<clipPath id="clip0_134_244">
<rect width="45" height="45" fill="white" transform="translate(0 0.227051)"/>
</clipPath>
</defs>
</svg>
