<svg width="50" height="49" viewBox="0 0 50 49" fill="none" xmlns="http://www.w3.org/2000/svg">
<g id="startup" clip-path="url(#clip0_134_262)">
<g id="Group">
<g id="Group_2">
<path id="Vector" d="M26.2366 23.2894C25.8547 22.9152 25.2366 22.9152 24.8547 23.2894C24.4739 23.6627 24.4739 24.2685 24.8547 24.6427C25.2366 25.0159 25.8547 25.0159 26.2366 24.6427C26.6174 24.2685 26.6174 23.6627 26.2366 23.2894Z" fill="#60E1CB"/>
</g>
</g>
<g id="Group_3">
<g id="Group_4">
<path id="Vector_2" d="M38.665 11.1083C36.7568 9.23836 33.6677 9.23827 31.7594 11.1083C29.8562 12.9735 29.8561 16.0092 31.7597 17.8758C33.6636 19.7405 36.7613 19.7413 38.665 17.8756C40.573 16.0058 40.5734 12.9784 38.665 11.1083ZM37.2839 16.5221C36.142 17.6413 34.2833 17.6413 33.1408 16.5223C31.9987 15.4024 31.9986 13.5808 33.1406 12.4617C34.2854 11.3398 36.1389 11.3396 37.2839 12.4617C38.4288 13.5836 38.429 15.4001 37.2839 16.5221Z" fill="#60E1CB"/>
</g>
</g>
<g id="Group_5">
<g id="Group_6">
<path id="Vector_3" d="M49.7142 0.280323C49.5224 0.0924584 49.2607 -0.00936951 48.9886 0.0006793C48.7678 0.00843124 43.5105 0.215532 37.261 2.38024C32.2532 4.11303 28.0791 6.59394 24.8546 9.75405C24.1321 10.4622 23.4289 11.213 22.7562 11.9931C19.5679 10.1539 17.013 10.7306 15.3979 11.5777C11.679 13.5281 9.3772 18.8239 9.3772 22.6118C9.37749 22.9989 9.61548 23.3479 9.98032 23.4959C10.1011 23.545 10.2281 23.5689 10.3539 23.5689C10.6081 23.5689 10.8578 23.4715 11.0446 23.2886C13.0058 21.3666 15.4248 21.4868 16.2151 21.5886L16.5571 21.9237C15.884 23.4933 15.3418 25.054 14.9442 26.5719C14.8006 27.1213 14.8491 27.7026 15.0624 28.2343C14.1222 28.6589 13.2151 29.2824 12.4252 30.0565C9.91147 32.5201 9.40103 38.5239 9.38052 38.7783C9.35806 39.0574 9.46138 39.3323 9.66343 39.5303C9.84731 39.7104 10.096 39.8106 10.3539 39.8106C10.3794 39.8106 10.4051 39.8097 10.4308 39.8076C10.6904 39.7876 16.8169 39.2874 19.3307 36.8239C20.1202 36.0502 20.7564 35.1613 21.1897 34.24C21.7641 34.4614 22.3553 34.4887 22.8869 34.3552C24.4352 33.9656 26.0276 33.4344 27.6293 32.7747L27.9713 33.1099C28.0751 33.8844 28.1978 36.2551 26.2366 38.1769C25.9574 38.4506 25.8738 38.8622 26.025 39.2197C26.1761 39.5774 26.5321 39.8105 26.9272 39.8105C30.7924 39.8105 36.1962 37.5547 38.1864 33.9102C39.0508 32.3276 39.6392 29.8238 37.7625 26.6992C38.5581 26.0402 39.3244 25.3511 40.0472 24.6427C43.2719 21.4826 45.8033 17.392 47.5715 12.4847C49.7804 6.35995 49.9917 1.20768 49.9996 0.991396C50.0093 0.72582 49.9059 0.468284 49.7142 0.280323ZM11.5606 20.5534C12.1672 17.6762 13.9292 14.5191 16.3199 13.2652C17.9174 12.4274 19.6636 12.5095 21.5202 13.5055C19.9385 15.5442 18.5634 17.7406 17.4172 20.0599C17.4027 20.0511 17.2269 19.8345 16.9003 19.7624C16.766 19.7326 14.1822 19.188 11.5606 20.5534ZM17.9496 35.4704C16.6069 36.7863 13.457 37.4803 11.4661 37.7637C11.7553 35.8125 12.4636 32.7257 13.8063 31.4099C14.5582 30.673 15.4301 30.1143 16.3065 29.7996L19.5928 33.0202C19.2717 33.879 18.7017 34.7335 17.9496 35.4704ZM22.4018 32.501C22.1192 32.5719 21.7918 32.4678 21.5485 32.2297C20.2851 30.9916 19.7908 30.5072 19.6358 30.3554C19.3514 30.0767 18.654 29.3933 17.1137 27.8836C16.8702 27.6445 16.7639 27.3238 16.8361 27.0473C17.1489 25.8535 17.5579 24.6287 18.0554 23.3921L26.1311 31.3063C24.8691 31.7939 23.6195 32.1947 22.4018 32.501ZM36.4646 33.0071C35.1852 35.3498 31.9637 37.0767 29.0279 37.6711C29.964 35.9449 30.1703 33.7475 29.8283 32.415C29.7489 32.1055 29.5429 31.9499 29.5314 31.9316C31.8979 30.8083 34.139 29.4607 36.2194 27.9106C37.2357 29.7303 37.3194 31.4418 36.4646 33.0071ZM38.6664 23.2893C37.7864 24.1516 36.8389 24.9847 35.85 25.7653C33.4729 27.6411 30.8564 29.23 28.065 30.4948L18.8834 21.497C20.1741 18.7612 21.7953 16.1972 23.7092 13.8678C24.5065 12.8981 25.3565 11.9694 26.236 11.1075C29.1291 8.27219 32.8629 6.01571 37.3367 4.39143L45.5195 12.4106C43.8623 16.7948 41.5597 20.4539 38.6664 23.2893ZM46.2221 10.3921L39.3964 3.70285C43.1152 2.57088 46.3505 2.14701 47.9653 1.99465C47.8097 3.57748 47.3771 6.74802 46.2221 10.3921Z" fill="#60E1CB"/>
</g>
</g>
<g id="Group_7">
<g id="Group_8">
<path id="Vector_4" d="M23.4739 39.53C23.0924 39.1562 22.474 39.1564 22.0928 39.5301L19.331 42.2376C18.9498 42.6114 18.9499 43.2174 19.3312 43.591C19.7128 43.9646 20.3311 43.9646 20.7124 43.5908L23.4741 40.8834C23.8554 40.5096 23.8553 39.9036 23.4739 39.53Z" fill="#60E1CB"/>
</g>
</g>
<g id="Group_9">
<g id="Group_10">
<path id="Vector_5" d="M9.6633 25.996C9.28205 25.6221 8.66379 25.6221 8.28225 25.9958L5.51956 28.7022C5.13811 29.0759 5.13801 29.6819 5.51926 30.0557C5.90041 30.4293 6.51868 30.4297 6.90032 30.0559L9.66301 27.3494C10.0445 26.9758 10.0445 26.3698 9.6633 25.996Z" fill="#60E1CB"/>
</g>
</g>
<g id="Group_11">
<g id="Group_12">
<path id="Vector_6" d="M16.5685 40.8843C16.1873 40.5106 15.5689 40.5106 15.1874 40.8842L8.57223 47.3662C8.19078 47.7399 8.19078 48.3459 8.57213 48.7196C8.95328 49.0933 9.57174 49.0935 9.95318 48.7197L16.5684 42.2377C16.9498 41.864 16.9498 41.258 16.5685 40.8843Z" fill="#60E1CB"/>
</g>
</g>
<g id="Group_13">
<g id="Group_14">
<path id="Vector_7" d="M8.756 40.8843C8.37475 40.5106 7.7563 40.5106 7.37495 40.8842L0.759728 47.3662C0.378284 47.7399 0.378284 48.3459 0.759631 48.7196C1.14078 49.0933 1.75924 49.0935 2.14068 48.7197L8.7559 42.2377C9.13735 41.864 9.13735 41.258 8.756 40.8843Z" fill="#60E1CB"/>
</g>
</g>
<g id="Group_15">
<g id="Group_16">
<path id="Vector_8" d="M8.28178 32.7626C7.90053 32.389 7.28208 32.389 6.90073 32.7627L0.286486 39.2456C-0.0948606 39.6194 -0.0948606 40.2253 0.286584 40.5992C0.667931 40.9729 1.28629 40.9729 1.66764 40.5991L8.28188 34.1162C8.66323 33.7423 8.66323 33.1364 8.28178 32.7626Z" fill="#60E1CB"/>
</g>
</g>
<g id="Group_17">
<g id="Group_18">
<path id="Vector_9" d="M30.3793 19.2285C29.9979 18.8548 29.3797 18.8548 28.9982 19.2285L27.6173 20.5818C27.236 20.9555 27.236 21.5615 27.6173 21.9353C27.9988 22.309 28.617 22.309 28.9985 21.9353L30.3793 20.5821C30.7606 20.2083 30.7606 19.6023 30.3793 19.2285Z" fill="#60E1CB"/>
</g>
</g>
</g>
<defs>
<clipPath id="clip0_134_262">
<rect width="50" height="49" fill="white"/>
</clipPath>
</defs>
</svg>
