<svg width="45" height="44" viewBox="0 0 45 44" fill="none" xmlns="http://www.w3.org/2000/svg">
<path d="M39.8913 41.3754H5.1087C2.29195 41.3754 0 39.1344 0 36.3803V7.54595C0 4.7918 2.29195 2.55078 5.1087 2.55078H39.8913C42.708 2.55078 45 4.7918 45 7.54595V36.3803C45 39.1344 42.708 41.3754 39.8913 41.3754ZM5.1087 4.0387C3.13094 4.0387 1.52174 5.61215 1.52174 7.54595V36.3803C1.52174 38.3141 3.13094 39.8875 5.1087 39.8875H39.8913C41.8691 39.8875 43.4783 38.3141 43.4783 36.3803V7.54595C43.4783 5.61215 41.8691 4.0387 39.8913 4.0387H5.1087Z" fill="#60E1CB"/>
<path d="M38.1327 30.0172H26.1766C25.7563 30.0172 25.4158 29.6843 25.4158 29.2733C25.4158 28.8627 25.7563 28.5293 26.1766 28.5293H38.1327C38.5527 28.5293 38.8936 28.8627 38.8936 29.2733C38.8936 29.6843 38.5531 30.0172 38.1327 30.0172Z" fill="#60E1CB"/>
<path d="M38.1327 35.3959H26.1766C25.7563 35.3959 25.4158 35.0629 25.4158 34.6519C25.4158 34.2413 25.7563 33.908 26.1766 33.908H38.1327C38.5527 33.908 38.8936 34.2413 38.8936 34.6519C38.8936 35.0629 38.5531 35.3959 38.1327 35.3959Z" fill="#60E1CB"/>
<path d="M38.1327 19.2597H26.1766C25.7563 19.2597 25.4158 18.9267 25.4158 18.5157C25.4158 18.1051 25.7563 17.7717 26.1766 17.7717H38.1327C38.5527 17.7717 38.8936 18.1051 38.8936 18.5157C38.8936 18.9267 38.5531 19.2597 38.1327 19.2597Z" fill="#60E1CB"/>
<path d="M38.1327 24.6383H26.1766C25.7563 24.6383 25.4158 24.3054 25.4158 23.8944C25.4158 23.4838 25.7563 23.1504 26.1766 23.1504H38.1327C38.5527 23.1504 38.8936 23.4838 38.8936 23.8944C38.8936 24.3054 38.5531 24.6383 38.1327 24.6383Z" fill="#60E1CB"/>
<path d="M44.2391 12.5126H0.76087C0.340523 12.5126 0 12.1796 0 11.7686C0 11.3576 0.340523 11.0247 0.76087 11.0247H44.2391C44.6595 11.0247 45 11.3576 45 11.7686C45 12.1796 44.6595 12.5126 44.2391 12.5126Z" fill="#60E1CB"/>
<path d="M10.969 9.86079C9.6634 9.86079 8.60107 8.82248 8.60107 7.54587C8.60107 6.26926 9.6634 5.23096 10.969 5.23096C12.2746 5.23096 13.3365 6.26926 13.3365 7.54587C13.3365 8.82248 12.2746 9.86079 10.969 9.86079ZM10.969 6.71888C10.5024 6.71888 10.1228 7.09003 10.1228 7.54587C10.1228 8.00172 10.5024 8.37287 10.969 8.37287C11.4352 8.37287 11.8148 8.00172 11.8148 7.54587C11.8148 7.09003 11.4352 6.71888 10.969 6.71888Z" fill="#60E1CB"/>
<path d="M5.48667 9.86079C4.18147 9.86079 3.11914 8.82248 3.11914 7.54587C3.11914 6.26926 4.18147 5.23096 5.48667 5.23096C6.79229 5.23096 7.85462 6.26926 7.85462 7.54587C7.85462 8.82248 6.79229 9.86079 5.48667 9.86079ZM5.48667 6.71888C5.02047 6.71888 4.64088 7.09003 4.64088 7.54587C4.64088 8.00172 5.02047 8.37287 5.48667 8.37287C5.9533 8.37287 6.33288 8.00172 6.33288 7.54587C6.33288 7.09003 5.9533 6.71888 5.48667 6.71888Z" fill="#60E1CB"/>
<path d="M16.4508 9.86079C15.1452 9.86079 14.0833 8.82248 14.0833 7.54587C14.0833 6.26926 15.1452 5.23096 16.4508 5.23096C17.7564 5.23096 18.8187 6.26926 18.8187 7.54587C18.8187 8.82248 17.7564 9.86079 16.4508 9.86079ZM16.4508 6.71888C15.9842 6.71888 15.605 7.09003 15.605 7.54587C15.605 8.00172 15.9846 8.37287 16.4508 8.37287C16.9174 8.37287 17.297 8.00172 17.297 7.54587C17.297 7.09003 16.9174 6.71888 16.4508 6.71888Z" fill="#60E1CB"/>
<path d="M20.4348 35.396H6.6305C6.21015 35.396 5.86963 35.063 5.86963 34.652V18.5157C5.86963 18.1051 6.21015 17.7717 6.6305 17.7717H20.4348C20.8552 17.7717 21.1957 18.1051 21.1957 18.5157V34.652C21.1957 35.063 20.8552 35.396 20.4348 35.396ZM7.39137 33.9081H19.674V19.2597H7.39137V33.9081Z" fill="#60E1CB"/>
</svg>
